<?xml version="1.0" encoding="utf-8"?>
<!-- Generator: Adobe Illustrator 25.0.0, SVG Export Plug-In . SVG Version: 6.00 Build 0)  -->
<svg version="1.1" id="Capa_1" xmlns="http://www.w3.org/2000/svg" xmlns:xlink="http://www.w3.org/1999/xlink" x="0px" y="0px"
	 viewBox="0 0 200 72" style="enable-background:new 0 0 200 72;" xml:space="preserve">
<style type="text/css">
	.st0{fill:#E42828;}
	.st1{fill:#2C4A97;}
	.st2{fill:#F4C214;}
	.st3{fill:#5A555A;}
</style>
<g>
	<path class="st0" d="M63.6,9.1c-0.3,0-0.5,0-0.8,0l0,0l0,0c-0.5,0-0.9,0.2-0.9,0.4s0.4,0.4,0.9,0.4l0,0l0,0c0.2,0,0.4,0,0.6,0
		c43.4,0,78.5,3.2,78.5,7.2s-35.4,7.3-79.1,7.3l0,0l0,0c-0.5,0-0.9,0.2-0.9,0.4c0,0.2,0.4,0.4,0.9,0.4l0,0l0,0
		c52.1,0,94.4-3.7,94.4-8.2C157.2,12.7,115.3,9.1,63.6,9.1z"/>
</g>
<g>
	<path class="st1" d="M150.1,13c5.8,1.2,8.1,2.4,8.1,4.1c0,1.8-2.4,3-8.2,4.1c-4.8,1-11.6,1.9-20.3,2.6c-8.5,0.7-18.4,1.3-29.1,1.7
		c-17.6,1-38.5,1.6-61,1.6l0,0l0,0c-0.6,0-1.1,0.2-1.1,0.5s0.5,0.5,1.1,0.5l0,0l0,0c73.8,0,133.7-5,133.7-11.1S114.1,6,40.8,6
		c-0.4,0-0.8,0-1.1,0l0,0c-0.6,0-1.1,0.2-1.1,0.5S39.1,7,39.7,7l0,0l0,0c0.3,0,0.6,0,0.9,0c22.8,0,44.1,0.6,61.8,1.6
		c10.2,0.4,19.5,0.9,27.6,1.6C138.6,11.2,145.4,12.1,150.1,13z"/>
</g>
<g>
	<path class="st2" d="M163,11.8c3.4,0.7,6.1,1.4,7.9,2.1c1.4,0.6,3.3,1.5,3.3,3.1s-1.9,2.6-3.3,3.2c-1.8,0.7-4.5,1.5-8,2.1
		c-6.8,1.3-16.4,2.5-28.8,3.5c-0.2,0-0.4,0-0.6,0.1c-27.3,3.2-69.1,5.2-115.9,5.2c-0.4,0-0.7,0-1.1,0c-3.9,0-7.9,0-11.7,0H4.7
		c-0.6,0-1.1,0.3-1.1,0.6s0.5,0.6,1.1,0.6l0,0l0,0l0,0l0,0c6.9,0.1,13.9,0.1,21.1,0.1c0.4,0,0.9,0,1.3,0
		c93.5-0.1,169.2-6.9,169.2-15.3c0-8.3-75-15.1-167.9-15.1c-0.4,0-0.9,0-1.3,0c-7.6,0-15,0.1-22.4,0.2l0,0l0,0l0,0
		c-0.6,0-1.1,0.3-1.1,0.6s0.5,0.6,1.1,0.6l0,0c4.3,0,8.6-0.1,13-0.1c0.4,0,0.8,0,1.1,0c42.9,0,81.5,1.7,108.5,4.4
		c2.5,0.2,4.9,0.4,7.2,0.6C146.7,9.3,156.3,10.5,163,11.8z"/>
</g>
<g>
	<g>
		<path class="st3" d="M8.8,67.5l1,0.3c-0.2,0.6-0.4,1-0.8,1.3c-0.4,0.3-0.8,0.4-1.4,0.4c-0.7,0-1.3-0.2-1.7-0.7
			c-0.5-0.5-0.7-1.1-0.7-2s0.2-1.6,0.7-2.1C6.4,64.3,7,64,7.7,64c0.6,0,1.2,0.2,1.6,0.6c0.2,0.2,0.4,0.6,0.5,1l-1.1,0.3
			c-0.1-0.3-0.2-0.5-0.4-0.6C8.2,65,8,65,7.7,65c-0.4,0-0.7,0.1-1,0.4c-0.2,0.3-0.4,0.7-0.4,1.4c0,0.7,0.1,1.1,0.4,1.4
			c0.2,0.3,0.6,0.4,0.9,0.4s0.5-0.1,0.7-0.3C8.6,68.2,8.7,67.9,8.8,67.5z"/>
	</g>
	<g>
		<path class="st3" d="M12.7,67.5c0-0.3,0.1-0.7,0.3-1s0.4-0.6,0.7-0.7c0.3-0.2,0.6-0.3,1-0.3c0.6,0,1.1,0.2,1.4,0.6
			c0.4,0.4,0.6,0.9,0.6,1.4c0,0.6-0.2,1.1-0.6,1.4c-0.4,0.4-0.8,0.6-1.4,0.6c-0.4,0-0.7-0.1-1-0.2c-0.3-0.2-0.6-0.4-0.7-0.7
			C12.8,68.3,12.7,67.9,12.7,67.5z M13.7,67.5c0,0.4,0.1,0.7,0.3,0.9c0.2,0.2,0.4,0.3,0.7,0.3s0.5-0.1,0.7-0.3
			c0.2-0.2,0.3-0.5,0.3-0.9s-0.1-0.7-0.3-0.9c-0.2-0.2-0.4-0.3-0.7-0.3s-0.5,0.1-0.7,0.3S13.7,67.1,13.7,67.5z"/>
	</g>
	<g>
		<path class="st3" d="M20.6,69.4h-1v-3.8h0.9v0.5c0.2-0.3,0.3-0.4,0.4-0.5s0.3-0.1,0.4-0.1c0.2,0,0.5,0.1,0.7,0.2l-0.3,0.9
			c-0.2-0.1-0.3-0.2-0.5-0.2c-0.1,0-0.3,0-0.4,0.1s-0.2,0.2-0.2,0.4c-0.1,0.2-0.1,0.6-0.1,1.3v1.2H20.6z"/>
	</g>
	<g>
		<path class="st3" d="M24.6,65.6h0.9v0.6c0.1-0.2,0.3-0.3,0.5-0.5c0.2-0.1,0.4-0.2,0.7-0.2c0.4,0,0.8,0.2,1.1,0.5
			c0.3,0.3,0.5,0.8,0.5,1.5c0,0.6-0.2,1.1-0.5,1.5s-0.7,0.5-1.1,0.5c-0.2,0-0.4,0-0.6-0.1s-0.4-0.2-0.5-0.4v1.9h-1V65.6z M25.6,67.5
			c0,0.4,0.1,0.8,0.3,1c0.2,0.2,0.4,0.3,0.6,0.3s0.4-0.1,0.6-0.3c0.2-0.2,0.2-0.5,0.2-0.9s-0.1-0.7-0.2-0.9
			c-0.2-0.2-0.4-0.3-0.6-0.3c-0.3,0-0.5,0.1-0.6,0.3C25.7,66.8,25.6,67.1,25.6,67.5z"/>
	</g>
	<g>
		<path class="st3" d="M31.1,67.5c0-0.3,0.1-0.7,0.2-1c0.2-0.3,0.4-0.6,0.7-0.7c0.3-0.2,0.6-0.3,1-0.3c0.6,0,1.1,0.2,1.4,0.6
			c0.4,0.4,0.6,0.9,0.6,1.4c0,0.6-0.2,1.1-0.6,1.4c-0.4,0.4-0.8,0.6-1.4,0.6c-0.4,0-0.7-0.1-1-0.2c-0.3-0.2-0.6-0.4-0.7-0.7
			C31.2,68.3,31.1,67.9,31.1,67.5z M32.1,67.5c0,0.4,0.1,0.7,0.3,0.9c0.2,0.2,0.4,0.3,0.7,0.3s0.5-0.1,0.7-0.3
			c0.2-0.2,0.3-0.5,0.3-0.9s-0.1-0.7-0.3-0.9c-0.2-0.2-0.4-0.3-0.7-0.3s-0.5,0.1-0.7,0.3C32.2,66.8,32.1,67.1,32.1,67.5z"/>
	</g>
	<g>
		<path class="st3" d="M39,69.4h-1v-3.8h0.9v0.5c0.2-0.3,0.3-0.4,0.4-0.5c0.1-0.1,0.3-0.1,0.4-0.1c0.2,0,0.5,0.1,0.7,0.2l-0.3,0.9
			c-0.2-0.1-0.3-0.2-0.5-0.2c-0.1,0-0.3,0-0.4,0.1c-0.1,0.1-0.2,0.2-0.2,0.4c0,0.3,0,0.7,0,1.4V69.4z"/>
	</g>
	<g>
		<path class="st3" d="M43.8,66.8l-0.9-0.2c0.1-0.4,0.3-0.6,0.5-0.8c0.3-0.2,0.6-0.3,1.1-0.3s0.8,0.1,1,0.2s0.4,0.2,0.5,0.4
			c0.1,0.2,0.1,0.5,0.1,0.9v1.2c0,0.3,0,0.6,0,0.7c0,0.2,0.1,0.3,0.2,0.5h-1c0-0.1-0.1-0.2-0.1-0.3c0-0.1,0-0.1,0-0.1
			c-0.2,0.2-0.4,0.3-0.6,0.4c-0.2,0.1-0.4,0.1-0.6,0.1c-0.4,0-0.7-0.1-0.9-0.3c-0.2-0.2-0.3-0.5-0.3-0.8c0-0.2,0.1-0.4,0.2-0.6
			c0.1-0.2,0.3-0.3,0.4-0.4c0.2-0.1,0.5-0.2,0.8-0.2c0.5-0.1,0.8-0.2,1-0.3v-0.1c0-0.2,0-0.3-0.1-0.4s-0.3-0.1-0.5-0.1
			s-0.3,0-0.4,0.1C44,66.5,43.9,66.6,43.8,66.8z M45.2,67.6c-0.1,0-0.3,0.1-0.6,0.2S44.1,67.9,44,68s-0.2,0.2-0.2,0.4
			c0,0.1,0.1,0.3,0.2,0.4c0.1,0.1,0.2,0.2,0.4,0.2s0.4-0.1,0.5-0.2s0.2-0.2,0.2-0.3c0-0.1,0-0.2,0-0.5L45.2,67.6L45.2,67.6z"/>
	</g>
	<g>
		<path class="st3" d="M52.7,66.7l-1,0.2c0-0.2-0.1-0.3-0.2-0.5c-0.1-0.1-0.3-0.2-0.5-0.2c-0.3,0-0.5,0.1-0.6,0.3
			c-0.2,0.2-0.2,0.5-0.2,0.9c0,0.5,0.1,0.8,0.2,1c0.2,0.2,0.4,0.3,0.6,0.3c0.2,0,0.4-0.1,0.5-0.2s0.2-0.3,0.3-0.6l1,0.2
			c-0.1,0.5-0.3,0.8-0.6,1s-0.7,0.4-1.2,0.4c-0.6,0-1-0.2-1.3-0.5c-0.3-0.4-0.5-0.8-0.5-1.5c0-0.6,0.2-1.1,0.5-1.5s0.8-0.5,1.4-0.5
			c0.5,0,0.8,0.1,1.1,0.3C52.4,66,52.6,66.3,52.7,66.7z"/>
	</g>
	<g>
		<path class="st3" d="M55.6,65.1v-0.9h1v0.9H55.6z M55.6,69.4v-3.8h1v3.8H55.6z"/>
	</g>
	<g>
		<path class="st3" d="M59.6,67.5c0-0.3,0.1-0.7,0.3-1s0.4-0.6,0.7-0.7c0.3-0.2,0.6-0.3,1-0.3c0.6,0,1.1,0.2,1.4,0.6
			c0.4,0.4,0.6,0.9,0.6,1.4c0,0.6-0.2,1.1-0.6,1.4c-0.4,0.4-0.8,0.6-1.4,0.6c-0.4,0-0.7-0.1-1-0.2c-0.3-0.2-0.6-0.4-0.7-0.7
			C59.7,68.3,59.6,67.9,59.6,67.5z M60.6,67.5c0,0.4,0.1,0.7,0.3,0.9c0.2,0.2,0.4,0.3,0.7,0.3s0.5-0.1,0.7-0.3
			c0.2-0.2,0.3-0.5,0.3-0.9s-0.1-0.7-0.3-0.9c-0.2-0.2-0.4-0.3-0.7-0.3s-0.5,0.1-0.7,0.3C60.7,66.8,60.6,67.1,60.6,67.5z M61,65.1
			l0.5-1.1h1.1l-1,1.1H61z"/>
	</g>
	<g>
		<path class="st3" d="M70,69.4h-1v-2c0-0.4,0-0.7-0.1-0.8c0-0.1-0.1-0.2-0.2-0.3c-0.1-0.1-0.2-0.1-0.4-0.1c-0.2,0-0.3,0-0.5,0.1
			c-0.1,0.1-0.2,0.2-0.3,0.4c-0.1,0.2-0.1,0.5-0.1,0.9v1.7h-1v-3.8h0.9v0.6c0.3-0.4,0.8-0.7,1.3-0.7c0.2,0,0.4,0,0.6,0.1
			s0.3,0.2,0.4,0.3c0.1,0.1,0.2,0.3,0.2,0.4c0,0.2,0.1,0.4,0.1,0.7L70,69.4L70,69.4z"/>
	</g>
	<g>
		<path class="st3" d="M77.4,69.4v-5.3h3.9V65h-2.9v1.2h2.7v0.9h-2.7v1.4h3v0.9H77.4z"/>
	</g>
	<g>
		<path class="st3" d="M84.5,69.4v-5.3h1v5.3H84.5z"/>
	</g>
	<g>
		<path class="st3" d="M90.9,68.2l1,0.2c-0.1,0.4-0.3,0.7-0.6,0.8c-0.3,0.2-0.6,0.3-1.1,0.3c-0.7,0-1.2-0.2-1.5-0.7
			c-0.3-0.4-0.4-0.8-0.4-1.3c0-0.6,0.2-1.1,0.5-1.5s0.8-0.5,1.3-0.5c0.6,0,1,0.2,1.4,0.6c0.3,0.4,0.5,1,0.5,1.7h-2.5
			c0,0.3,0.1,0.5,0.2,0.7c0.2,0.2,0.4,0.3,0.6,0.3s0.3,0,0.4-0.1S90.9,68.4,90.9,68.2z M91,67.2c0-0.3-0.1-0.5-0.2-0.7
			s-0.3-0.2-0.5-0.2s-0.4,0.1-0.5,0.2c-0.1,0.2-0.2,0.4-0.2,0.7H91z M89.7,65.1l0.5-1.1h1.1l-1,1.1H89.7z"/>
	</g>
	<g>
		<path class="st3" d="M98.3,66.7l-1,0.2c0-0.2-0.1-0.3-0.2-0.5c-0.1-0.1-0.3-0.2-0.5-0.2c-0.3,0-0.5,0.1-0.6,0.3
			c-0.1,0.2-0.2,0.5-0.2,0.9c0,0.5,0.1,0.8,0.2,1c0.2,0.2,0.4,0.3,0.6,0.3s0.4-0.1,0.5-0.2s0.2-0.3,0.3-0.6l1,0.2
			c-0.1,0.5-0.3,0.8-0.6,1c-0.3,0.2-0.7,0.4-1.2,0.4c-0.6,0-1-0.2-1.3-0.5c-0.3-0.4-0.5-0.8-0.5-1.5c0-0.6,0.2-1.1,0.5-1.5
			s0.8-0.5,1.4-0.5c0.5,0,0.8,0.1,1.1,0.3C98,66,98.2,66.3,98.3,66.7z"/>
	</g>
	<g>
		<path class="st3" d="M103,65.6v0.8h-0.7V68c0,0.3,0,0.5,0,0.5c0,0.1,0,0.1,0.1,0.1c0,0,0.1,0.1,0.2,0.1s0.2,0,0.4-0.1l0.1,0.8
			c-0.2,0.1-0.5,0.2-0.8,0.2c-0.2,0-0.4,0-0.5-0.1s-0.3-0.1-0.3-0.2c-0.1-0.1-0.1-0.2-0.1-0.4c0-0.1,0-0.4,0-0.7v-1.7h-0.5v-0.8h0.5
			v-0.8l1-0.6v1.4h0.6V65.6z"/>
	</g>
	<g>
		<path class="st3" d="M106.8,69.4h-1v-3.8h0.9v0.5c0.2-0.3,0.3-0.4,0.4-0.5s0.3-0.1,0.4-0.1c0.2,0,0.5,0.1,0.7,0.2l-0.3,0.9
			c-0.2-0.1-0.3-0.2-0.5-0.2c-0.1,0-0.3,0-0.4,0.1s-0.2,0.2-0.2,0.4c-0.1,0.2-0.1,0.6-0.1,1.3L106.8,69.4L106.8,69.4z"/>
	</g>
	<g>
		<path class="st3" d="M110.9,65.1v-0.9h1v0.9H110.9z M110.9,69.4v-3.8h1v3.8H110.9z"/>
	</g>
	<g>
		<path class="st3" d="M118.5,66.7l-1,0.2c0-0.2-0.1-0.3-0.2-0.5c-0.1-0.1-0.3-0.2-0.5-0.2c-0.3,0-0.5,0.1-0.6,0.3
			c-0.2,0.2-0.2,0.5-0.2,0.9c0,0.5,0.1,0.8,0.2,1c0.2,0.2,0.4,0.3,0.6,0.3s0.4-0.1,0.5-0.2s0.2-0.3,0.3-0.6l1,0.2
			c-0.1,0.5-0.3,0.8-0.6,1c-0.3,0.2-0.7,0.4-1.2,0.4c-0.6,0-1-0.2-1.3-0.5c-0.3-0.4-0.5-0.8-0.5-1.5c0-0.6,0.2-1.1,0.5-1.5
			s0.8-0.5,1.4-0.5c0.5,0,0.8,0.1,1.1,0.3C118.1,66,118.3,66.3,118.5,66.7z"/>
	</g>
	<g>
		<path class="st3" d="M122.2,66.8l-0.9-0.2c0.1-0.4,0.3-0.6,0.5-0.8c0.3-0.2,0.6-0.3,1.1-0.3s0.8,0.1,1,0.2s0.4,0.2,0.5,0.4
			c0.1,0.2,0.1,0.5,0.1,0.9v1.2c0,0.3,0,0.6,0,0.7c0,0.2,0.1,0.3,0.2,0.5h-1c0-0.1-0.1-0.2-0.1-0.3c0-0.1,0-0.1,0-0.1
			c-0.2,0.2-0.4,0.3-0.6,0.4s-0.4,0.1-0.6,0.1c-0.4,0-0.7-0.1-0.9-0.3c-0.2-0.2-0.3-0.5-0.3-0.8c0-0.2,0.1-0.4,0.2-0.6
			s0.2-0.3,0.4-0.4c0.2-0.1,0.5-0.2,0.8-0.2c0.5-0.1,0.8-0.2,1-0.3v-0.1c0-0.2,0-0.3-0.1-0.4s-0.3-0.1-0.5-0.1s-0.3,0-0.4,0.1
			C122.3,66.5,122.2,66.6,122.2,66.8z M123.5,67.6c-0.1,0-0.3,0.1-0.6,0.2c-0.3,0.1-0.5,0.1-0.6,0.2s-0.2,0.2-0.2,0.4
			c0,0.1,0.1,0.3,0.2,0.4s0.2,0.2,0.4,0.2c0.2,0,0.4-0.1,0.5-0.2s0.2-0.2,0.2-0.3c0-0.1,0-0.2,0-0.5L123.5,67.6L123.5,67.6z"/>
	</g>
	<g>
		<path class="st3" d="M135.4,69.4h-0.9v-0.6c-0.2,0.2-0.3,0.4-0.6,0.5c-0.2,0.1-0.4,0.2-0.6,0.2c-0.4,0-0.8-0.2-1.1-0.5
			c-0.3-0.4-0.5-0.9-0.5-1.5c0-0.7,0.2-1.1,0.5-1.5c0.3-0.3,0.7-0.5,1.2-0.5c0.4,0,0.8,0.2,1.1,0.5v-1.9h1L135.4,69.4L135.4,69.4z
			 M132.7,67.4c0,0.4,0.1,0.7,0.2,0.9c0.2,0.3,0.4,0.4,0.7,0.4c0.2,0,0.4-0.1,0.6-0.3c0.2-0.2,0.2-0.5,0.2-0.9s-0.1-0.8-0.2-1
			c-0.2-0.2-0.4-0.3-0.6-0.3c-0.2,0-0.4,0.1-0.6,0.3C132.8,66.8,132.7,67.1,132.7,67.4z"/>
	</g>
	<g>
		<path class="st3" d="M140.8,68.2l1,0.2c-0.1,0.4-0.3,0.7-0.6,0.8c-0.3,0.2-0.6,0.3-1.1,0.3c-0.7,0-1.2-0.2-1.5-0.7
			c-0.3-0.4-0.4-0.8-0.4-1.3c0-0.6,0.2-1.1,0.5-1.5s0.8-0.5,1.3-0.5c0.6,0,1,0.2,1.4,0.6c0.3,0.4,0.5,1,0.5,1.7h-2.6
			c0,0.3,0.1,0.5,0.2,0.7c0.2,0.2,0.4,0.3,0.6,0.3c0.2,0,0.3,0,0.4-0.1C140.6,68.6,140.7,68.4,140.8,68.2z M140.8,67.2
			c0-0.3-0.1-0.5-0.2-0.7c-0.1-0.2-0.3-0.2-0.5-0.2s-0.4,0.1-0.6,0.2c-0.1,0.2-0.2,0.4-0.2,0.7H140.8z"/>
	</g>
	<g>
		<path class="st3" d="M144.8,69.4v-5.3h1v5.3H144.8z"/>
	</g>
	<g>
		<path class="st3" d="M153.3,69.4v-5.3h3.9V65h-2.9v1.2h2.7v0.9h-2.7v1.4h3v0.9H153.3z"/>
	</g>
	<g>
		<path class="st3" d="M163.7,66.7l-1,0.2c0-0.2-0.1-0.3-0.2-0.5c-0.1-0.1-0.3-0.2-0.5-0.2c-0.3,0-0.5,0.1-0.6,0.3
			c-0.2,0.2-0.2,0.5-0.2,0.9c0,0.5,0.1,0.8,0.2,1c0.2,0.2,0.4,0.3,0.6,0.3c0.2,0,0.4-0.1,0.5-0.2s0.2-0.3,0.3-0.6l1,0.2
			c-0.1,0.5-0.3,0.8-0.6,1s-0.7,0.4-1.2,0.4c-0.6,0-1-0.2-1.3-0.5c-0.3-0.4-0.5-0.8-0.5-1.5c0-0.6,0.2-1.1,0.5-1.5s0.8-0.5,1.4-0.5
			c0.5,0,0.8,0.1,1.1,0.3C163.4,66,163.6,66.3,163.7,66.7z"/>
	</g>
	<g>
		<path class="st3" d="M169.2,69.4v-0.6c-0.1,0.2-0.3,0.4-0.6,0.5c-0.2,0.1-0.5,0.2-0.7,0.2c-0.3,0-0.5-0.1-0.7-0.2
			s-0.4-0.3-0.4-0.5c-0.1-0.2-0.1-0.5-0.1-0.9v-2.4h1v1.8c0,0.5,0,0.9,0.1,1c0,0.1,0.1,0.2,0.2,0.3c0.1,0.1,0.2,0.1,0.4,0.1
			s0.3,0,0.5-0.1c0.1-0.1,0.2-0.2,0.3-0.4c0.1-0.1,0.1-0.5,0.1-1v-1.6h1v3.8C170.3,69.4,169.2,69.4,169.2,69.4z"/>
	</g>
	<g>
		<path class="st3" d="M174.1,66.8l-0.9-0.2c0.1-0.4,0.3-0.6,0.5-0.8c0.3-0.2,0.6-0.3,1.1-0.3s0.8,0.1,1,0.2s0.4,0.2,0.5,0.4
			c0.1,0.2,0.1,0.5,0.1,0.9v1.2c0,0.3,0,0.6,0,0.7c0,0.2,0.1,0.3,0.2,0.5h-1c0-0.1-0.1-0.2-0.1-0.3c0-0.1,0-0.1,0-0.1
			c-0.2,0.2-0.4,0.3-0.6,0.4c-0.2,0.1-0.4,0.1-0.6,0.1c-0.4,0-0.7-0.1-0.9-0.3c-0.2-0.2-0.3-0.5-0.3-0.8c0-0.2,0.1-0.4,0.2-0.6
			c0.1-0.2,0.2-0.3,0.4-0.4s0.5-0.2,0.8-0.2c0.5-0.1,0.8-0.2,1-0.3v-0.1c0-0.2,0-0.3-0.1-0.4s-0.3-0.1-0.5-0.1s-0.3,0-0.4,0.1
			C174.2,66.5,174.1,66.6,174.1,66.8z M175.4,67.6c-0.1,0-0.3,0.1-0.6,0.2s-0.5,0.1-0.6,0.2s-0.2,0.2-0.2,0.4c0,0.1,0.1,0.3,0.2,0.4
			c0.1,0.1,0.2,0.2,0.4,0.2s0.4-0.1,0.5-0.2s0.2-0.2,0.2-0.3c0-0.1,0-0.2,0-0.5v-0.4H175.4z"/>
	</g>
	<g>
		<path class="st3" d="M183.1,69.4h-0.9v-0.6c-0.2,0.2-0.3,0.4-0.6,0.5c-0.2,0.1-0.4,0.2-0.6,0.2c-0.4,0-0.8-0.2-1.1-0.5
			c-0.3-0.4-0.5-0.9-0.5-1.5c0-0.7,0.2-1.1,0.5-1.5c0.3-0.3,0.7-0.5,1.2-0.5c0.4,0,0.8,0.2,1.1,0.5v-1.9h1L183.1,69.4L183.1,69.4z
			 M180.4,67.4c0,0.4,0.1,0.7,0.2,0.9c0.2,0.3,0.4,0.4,0.7,0.4c0.2,0,0.4-0.1,0.6-0.3c0.2-0.2,0.2-0.5,0.2-0.9s-0.1-0.8-0.2-1
			c-0.2-0.2-0.4-0.3-0.6-0.3c-0.2,0-0.4,0.1-0.6,0.3C180.5,66.8,180.4,67.1,180.4,67.4z"/>
	</g>
	<g>
		<path class="st3" d="M186,67.5c0-0.3,0.1-0.7,0.2-1c0.2-0.3,0.4-0.6,0.7-0.7c0.3-0.2,0.6-0.3,1-0.3c0.6,0,1.1,0.2,1.4,0.6
			c0.4,0.4,0.6,0.9,0.6,1.4c0,0.6-0.2,1.1-0.6,1.4c-0.4,0.4-0.8,0.6-1.4,0.6c-0.3,0-0.7-0.1-1-0.2c-0.3-0.2-0.6-0.4-0.7-0.7
			C186.1,68.3,186,67.9,186,67.5z M187.1,67.5c0,0.4,0.1,0.7,0.3,0.9c0.2,0.2,0.4,0.3,0.7,0.3s0.5-0.1,0.7-0.3
			c0.2-0.2,0.3-0.5,0.3-0.9s-0.1-0.7-0.3-0.9c-0.2-0.2-0.4-0.3-0.7-0.3s-0.5,0.1-0.7,0.3C187.2,66.8,187.1,67.1,187.1,67.5z"/>
	</g>
	<g>
		<path class="st3" d="M193.9,69.4h-1v-3.8h0.9v0.5c0.2-0.3,0.3-0.4,0.4-0.5c0.1-0.1,0.3-0.1,0.4-0.1c0.2,0,0.5,0.1,0.7,0.2
			l-0.3,0.9c-0.2-0.1-0.3-0.2-0.5-0.2c-0.1,0-0.3,0-0.4,0.1c-0.1,0.1-0.2,0.2-0.2,0.4c-0.1,0.2-0.1,0.6-0.1,1.3v1.2H193.9z"/>
	</g>
</g>
<g>
	<g>
		<path class="st1" d="M17.6,56c-1.1,0-2.1-1.1-2.1-2.5v-9.4c0-1.4,0.9-2.5,2.1-2.5h14.2v-3.9H12.3c-4.8,0-8.7,5-8.7,11.1
			s3.9,11.1,8.7,11.1h19.5V56H17.6z"/>
	</g>
	<g>
		<path class="st1" d="M78,56c-1.1,0-2.1-1.1-2.1-2.5v-9.4c0-1.4,0-6.2,0-6.2H64.4c0,0,0,4.7,0,10.9c0,6.1,3.5,11.1,8.3,11.1h18.1
			V56H78z"/>
	</g>
	<g>
		<g>
			<path class="st1" d="M48.2,56c-1.1,0-2.1-1.1-2.1-2.5v-9.4c0-1.4,0.9-2.5,2.1-2.5h14.2v-3.9H42.9c-4.8,0-8.7,5-8.7,11.1
				s3.9,11.1,8.7,11.1h19.5V56H48.2z"/>
		</g>
		<g>
			<path class="st1" d="M62.1,50.4c0,0.2-0.2,0.4-0.4,0.4H48.2c-0.2,0-0.4-0.2-0.4-0.4v-2.8c0-0.2,0.2-0.4,0.4-0.4h13.5
				c0.2,0,0.4,0.2,0.4,0.4C62.1,47.6,62.1,50.4,62.1,50.4z"/>
		</g>
	</g>
	<g>
		<g>
			<path class="st1" d="M104,56c-1.1,0-2.1-1.1-2.1-2.5v-9.4c0-1.4,0.9-2.5,2.1-2.5h14.2v-3.9H98.7c-4.8,0-8.7,5-8.7,11.1
				s3.9,11.1,8.7,11.1h19.5V56H104z"/>
		</g>
		<g>
			<path class="st1" d="M117.9,50.4c0,0.2-0.2,0.4-0.4,0.4H104c-0.2,0-0.4-0.2-0.4-0.4v-2.8c0-0.2,0.2-0.4,0.4-0.4h13.5
				c0.2,0,0.4,0.2,0.4,0.4V50.4z"/>
		</g>
	</g>
	<g>
		<path class="st1" d="M165.8,57.2c-0.8,0-1.4-0.7-1.4-1.7v-6.2c0-0.9,0.6-1.7,1.4-1.7h9.4V45h-12.9c-3.2,0-5.7,3.3-5.7,7.3
			c0,4.1,2.6,7.4,5.7,7.4h12.9v-2.6L165.8,57.2L165.8,57.2z"/>
	</g>
	<g>
		<path class="st1" d="M189.3,47c0.6,0,1,0.5,1,1.2v4.5c0,0.7-0.5,1.2-1,1.2h-6.9v1.9h9.5c2.3,0,4.2-2.4,4.2-5.3
			c0-2.9-1.9-5.3-4.2-5.3h-9.5V47H189.3z"/>
	</g>
	<g>
		<path class="st1" d="M175,53.5c0,0.2-0.1,0.3-0.2,0.3h-8.9c-0.1,0-0.2-0.1-0.2-0.3v-1.9c0-0.2,0.1-0.3,0.2-0.3h8.9
			c0.1,0,0.2,0.1,0.2,0.3V53.5z"/>
	</g>
	<g>
		<path class="st1" d="M134.1,56c-1.1,0-2.1-1.1-2.1-2.5v-9.4c0-1.4,0.9-2.5,2.1-2.5h14.2v-3.9h-19.5c-4.8,0-8.7,5-8.7,11.1
			s3.9,11.1,8.7,11.1h19.5V56H134.1z"/>
	</g>
	<g>
		<rect x="177.1" y="45.2" class="st1" width="4.4" height="14.7"/>
	</g>
</g>
</svg>
